<svg width="252" height="252" xmlns="http://www.w3.org/2000/svg">

 <g>
  <title>background</title>
  <rect fill="none" id="canvas_background" height="254" width="254" y="-1" x="-1"/>
 </g>
 <g>
  <title>Layer 1</title>
  <path stroke="#191919" fill="#e5e5e5" id="svg_3" d="m225.172538,237.281692l-199,0c-6.627,0 -12,-5.373 -12,-12l0,-199c0,-6.627 5.373,-12 12,-12l199,0c6.627,0 12,5.373 12,12l0,199c0,6.627 -5.373,12 -12,12z" class="st5"/>
  <circle fill="#ffffff" id="svg_5" r="18" cy="46.336269" cx="50.727115" class="st3"/>
  <circle fill="#003366" id="svg_7" r="11" cy="46.336269" cx="51.281692" class="st1"/>
  <circle fill="#ffffff" id="svg_9" r="18" cy="46.336269" cx="102.727115" class="st3"/>
  <circle fill="#003366" id="svg_11" r="11" cy="46.336269" cx="102.727115" class="st1"/>
  <circle fill="#ffffff" id="svg_13" r="18" cy="46.336269" cx="154.727115" class="st3"/>
  <circle fill="#003366" id="svg_15" r="11" cy="46.336269" cx="154.727115" class="st1"/>
  <circle fill="#ffffff" id="svg_17" r="18" cy="46.336269" cx="206.727115" class="st3"/>
  <circle fill="#003366" id="svg_19" r="11" cy="46.336269" cx="206.727115" class="st1"/>
  <circle fill="#ffffff" id="svg_21" r="18" cy="98.336269" cx="206.727115" class="st3"/>
  <circle fill="#003366" id="svg_23" r="11" cy="98.336269" cx="206.727115" class="st1"/>
  <circle fill="#ffffff" id="svg_25" r="18" cy="150.336269" cx="206.727115" class="st3"/>
  <circle fill="#003366" id="svg_27" r="11" cy="150.336269" cx="207.281692" class="st1"/>
  <circle fill="#ffffff" id="svg_29" r="18" cy="202.336269" cx="206.727115" class="st3"/>
  <circle fill="#003366" id="svg_31" r="11" cy="202.336269" cx="206.727115" class="st1"/>
  <path fill="#ff436c" id="svg_33" d="m166.727115,116.336269l-24,0c-3.314,0 -6,-2.686 -6,-6l0,-24c0,-3.314 2.686,-6 6,-6l24,0c3.314,0 6,2.686 6,6l0,24c0,3.314 -2.686,6 -6,6z" class="st8"/>
  <path fill="#0078d7" id="svg_35" d="m114.727115,116.336269l-24,0c-3.314,0 -6,-2.686 -6,-6l0,-24c0,-3.314 2.686,-6 6,-6l24,0c3.314,0 6,2.686 6,6l0,24c0,3.314 -2.686,6 -6,6z" class="st3"/>
  <path fill="#00cc6a" id="svg_37" d="m62.727115,116.336269l-24,0c-3.314,0 -6,-2.686 -6,-6l0,-24c0,-3.314 2.686,-6 6,-6l24,0c3.314,0 6,2.686 6,6l0,24c0,3.314 -2.686,6 -6,6z" class="st0"/>
  <path fill="#0078d7" id="svg_39" d="m166.727115,168.336269l-24,0c-3.314,0 -6,-2.686 -6,-6l0,-24c0,-3.314 2.686,-6 6,-6l24,0c3.314,0 6,2.686 6,6l0,24c0,3.314 -2.686,6 -6,6z" class="st4"/>
  <path fill="#000000" id="svg_41" d="m114.727115,168.336269l-24,0c-3.314,0 -6,-2.686 -6,-6l0,-24c0,-3.314 2.686,-6 6,-6l24,0c3.314,0 6,2.686 6,6l0,24c0,3.314 -2.686,6 -6,6z" class="st7"/>
  <path fill="#0000bf" id="svg_43" d="m62.727115,168.336269l-24,0c-3.314,0 -6,-2.686 -6,-6l0,-24c0,-3.314 2.686,-6 6,-6l24,0c3.314,0 6,2.686 6,6l0,24c0,3.314 -2.686,6 -6,6z" class="st1"/>
  <path fill="#ffb900" id="svg_45" d="m166.727115,222.279269l-24,0c-3.314,0 -6,-2.686 -6,-6l0,-24c0,-3.314 2.686,-6 6,-6l24,0c3.314,0 6,2.686 6,6l0,24c0,3.313 -2.686,6 -6,6z" class="st8"/>
  <path fill="#c239b3" id="svg_47" d="m114.727115,222.279269l-24,0c-3.314,0 -6,-2.686 -6,-6l0,-24c0,-3.314 2.686,-6 6,-6l24,0c3.314,0 6,2.686 6,6l0,24c0,3.313 -2.686,6 -6,6z" class="st3"/>
  <path fill="#00b7c3" id="svg_49" d="m62.727115,222.279269l-24,0c-3.314,0 -6,-2.686 -6,-6l0,-24c0,-3.314 2.686,-6 6,-6l24,0c3.314,0 6,2.686 6,6l0,24c0,3.313 -2.686,6 -6,6z" class="st0"/>
  <path fill="#191919" id="svg_51" d="m226.281692,239.836269l-199,0c-7.72,0 -14,-6.28 -14,-14l0,-199c0,-7.72 6.28,-14 14,-14l199,0c7.72,0 14,6.28 14,14l0,199c0,7.72 -6.28,14 -14,14zm-199,-223c-5.514,0 -10,4.486 -10,10l0,199c0,5.514 4.486,10 10,10l199,0c5.514,0 10,-4.486 10,-10l0,-199c0,-5.514 -4.486,-10 -10,-10l-199,0z" class="st2"/>
 </g>
</svg>